<svg width="29" height="32" viewBox="0 0 29 32" fill="none" xmlns="http://www.w3.org/2000/svg">
<path d="M25.9782 14.9343L17.1344 9.83266C16.732 9.59711 16.2352 9.59711 15.8328 9.83266L8.05857 14.3181C7.70688 14.5212 7.48933 14.8981 7.48933 15.3042C7.48933 15.9677 8.03333 16.4427 8.63155 16.4427C8.82013 16.4427 9.01221 16.3958 9.19728 16.2906L16.2462 12.2185C16.3948 12.1351 16.5724 12.1351 16.721 12.2185L18.5269 13.2628C18.6538 13.3353 18.6538 13.5166 18.5269 13.589L8.05857 19.6336C7.70688 19.8367 7.48933 20.2138 7.48933 20.62C7.48933 21.2836 8.03333 21.7584 8.62781 21.7584C8.81639 21.7584 9.01221 21.7077 9.19728 21.6026L20.8511 14.8761C20.9962 14.793 21.1775 14.793 21.3226 14.8761L23.0993 15.9025C23.2262 15.9751 23.2262 16.1562 23.0993 16.2289L5.49862 26.3963C5.37173 26.4685 5.21587 26.3778 5.21587 26.2329V13.2736L12.1996 9.24168C13.0698 8.73764 13.0698 7.48302 12.1996 6.98271L4.89316 2.76552C4.02644 2.26171 2.93867 2.8889 2.93867 3.89325V28.2379C2.93867 29.239 4.02644 29.8662 4.89316 29.3658L25.9782 17.1933C26.8449 16.693 26.8449 15.4384 25.9782 14.9343ZM28.8029 16.0656C28.8029 17.3057 28.1393 18.4589 27.066 19.0789L5.98093 31.2512C5.45165 31.5557 4.84969 31.719 4.24423 31.719C2.32596 31.719 0.763123 30.1562 0.763123 28.2379V3.89325C0.763123 1.97148 2.32596 0.412373 4.24423 0.412373C4.84969 0.412373 5.45165 0.571974 5.98093 0.880196L27.066 13.0525C28.1393 13.6725 28.8029 14.8257 28.8029 16.0656ZM5.21587 10.3185V5.90195C5.21587 5.75707 5.37173 5.6664 5.49862 5.73884L9.32043 7.94711C9.44755 8.01978 9.44755 8.20088 9.32043 8.27332L5.49862 10.4818C5.37173 10.554 5.21587 10.4636 5.21587 10.3185Z" fill="#004D8D"/>
</svg>
