<?xml version="1.0" encoding="utf-8"?>
<!-- Generator: Adobe Illustrator 23.0.3, SVG Export Plug-In . SVG Version: 6.00 Build 0)  -->
<svg version="1.1" id="Layer_1" xmlns="http://www.w3.org/2000/svg" xmlns:xlink="http://www.w3.org/1999/xlink" x="0px" y="0px"
	 viewBox="0 0 32 32" style="enable-background:new 0 0 32 32;" xml:space="preserve">
<style type="text/css">
	.st0{fill:#00AC98;}
</style>
<path class="st0" d="M31.6,16.3l0.3-0.3l-0.3-0.3c-2.3-2.3-4-3.6-5.8-3.7c0.1-0.1,0.1-0.1,0.2-0.2c1-1.3,1.3-3.4,1.3-6.5V4.7h-0.5
	c-3.3,0-5.4,0.3-6.7,1.4c0-0.1,0-0.2,0-0.3c-0.3-1.6-1.5-3.3-3.7-5.5L15.9,0l-0.3,0.3c-2.3,2.3-3.6,4-3.7,5.8
	C11.8,6.1,11.7,6,11.7,6c-1.3-1-3.4-1.3-6.5-1.3H4.6v0.5c0,3.3,0.3,5.4,1.4,6.7c-0.1,0-0.2,0-0.3,0c-1.6,0.3-3.3,1.5-5.5,3.7L0,16
	l0.3,0.3c2.3,2.3,4,3.6,5.8,3.7C6,20.1,6,20.2,5.9,20.3c-1,1.3-1.3,3.4-1.3,6.5v0.5h0.5c3.3,0,5.4-0.3,6.7-1.4c0,0.1,0,0.2,0,0.3
	c0.3,1.6,1.5,3.3,3.7,5.5l0.3,0.3l0.3-0.3c2.3-2.3,3.6-4,3.7-5.8c0.1,0.1,0.1,0.1,0.2,0.2c1.3,1,3.4,1.3,6.5,1.3h0.5v-0.5
	c0-3.3-0.3-5.4-1.4-6.7c0.1,0,0.2,0,0.3,0C27.7,19.8,29.4,18.5,31.6,16.3z M19.6,8.4c0.1-0.1,0.1-0.3,0.2-0.4
	C20,7.6,20.2,7.3,20.5,7c1-1,2.8-1.3,5.8-1.3c0,2.6-0.3,4.4-1.1,5.4c-0.3,0.5-0.8,0.8-1.4,1.1c-0.1,0-0.2,0.1-0.3,0.1
	c-0.7,0.2-1.5,0.4-2.4,0.5c0-0.2,0-0.3,0-0.5c0-0.8,0.1-1.6,0.2-2.4c0-0.1,0-0.2,0.1-0.3c0.1-0.5,0.3-0.9,0.5-1.1
	C22.1,8.3,22.5,8.1,23,8c0.4-0.1,0.7-0.2,1.1-0.2c0,0.4-0.1,0.8-0.2,1.1c-0.1,0.5-0.3,0.9-0.5,1.1c-0.1,0.1-0.4,0.3-0.6,0.4
	c-0.2,0.1-0.4,0.1-0.6,0.2c0,0.3-0.1,0.5-0.1,0.8l0,0.2c0.4-0.1,0.7-0.2,1-0.3c0.4-0.1,0.7-0.3,1-0.6c0.4-0.4,0.6-0.9,0.8-1.5
	c0.1-0.6,0.2-1.2,0.3-1.9l0-0.6l-0.6,0c-0.6,0-1.3,0.1-1.9,0.3c-0.6,0.2-1.2,0.4-1.5,0.8c-0.4,0.4-0.6,0.9-0.8,1.5
	c-0.1,0.6-0.2,1.2-0.3,1.9v0c0,0.3,0,0.7,0,1c0,0.3,0,0.7,0,1.1l0,0.5l0.5,0c0.2,0,0.4,0,0.7-0.1c-0.6,0.5-1.1,1-1.8,1.6l0,0
	c-0.1,0.1-0.2,0.2-0.3,0.3l0-0.1C19.1,14.7,19,13.9,19,13C19.1,11,19.2,9.5,19.6,8.4L19.6,8.4z M15.9,1.4C17.8,3.3,18.8,4.7,19,6
	c0.1,0.6,0,1.1-0.2,1.7c0,0.1-0.1,0.2-0.1,0.3c-0.3,0.6-0.7,1.3-1.4,2.1C17.2,10,17.1,9.9,17,9.7c-0.5-0.6-1.1-1.2-1.5-1.9
	c-0.1-0.1-0.1-0.2-0.2-0.3c-0.3-0.4-0.4-0.8-0.4-1.1c0-0.3,0.2-0.7,0.4-1.1c0.2-0.3,0.4-0.6,0.7-0.9c0.3,0.3,0.5,0.6,0.7,0.9
	C16.9,5.8,17,6.2,17,6.5c0,0.2-0.1,0.4-0.2,0.7c-0.1,0.2-0.2,0.3-0.3,0.5c0.2,0.2,0.3,0.4,0.5,0.6l0.1,0.2c0.2-0.3,0.4-0.6,0.5-0.9
	C17.9,7.2,18,6.8,18,6.5c0-0.5-0.2-1.1-0.6-1.6c-0.3-0.5-0.7-1-1.1-1.5l-0.4-0.4l-0.4,0.4c-0.4,0.5-0.8,1-1.1,1.5
	c-0.3,0.6-0.6,1.1-0.6,1.6s0.2,1.1,0.6,1.6c0.3,0.5,0.7,1,1.1,1.5l0,0c0.2,0.2,0.4,0.5,0.7,0.8c0.2,0.3,0.5,0.5,0.8,0.7l0.4,0.3
	l0.3-0.4c0.1-0.2,0.3-0.3,0.4-0.5c-0.1,0.7-0.1,1.5-0.1,2.4v0c0,0.1,0,0.2,0,0.4L18,13.4l0,0c-0.7-0.5-1.4-1-2-1.7
	c-1.4-1.4-2.4-2.6-2.8-3.6c0-0.1-0.1-0.3-0.2-0.4c-0.2-0.4-0.2-0.9-0.2-1.3C12.9,5,13.9,3.5,15.9,1.4z M18.4,16.7l-0.6,0.8l-0.6,0.8
	l-1,0.1l-1,0.1l-0.8-0.6l-0.8-0.6l-0.1-1l-0.1-1l0.6-0.8l0.6-0.8l1-0.1l1-0.1l0.8,0.6l0.8,0.6l0.1,1L18.4,16.7z M5.6,5.7
	c2.6,0,4.4,0.3,5.4,1.1c0.5,0.3,0.8,0.8,1.1,1.4c0,0.1,0.1,0.2,0.1,0.3c0.2,0.7,0.4,1.5,0.5,2.4c-0.2,0-0.3,0-0.5,0
	c-0.8,0-1.6-0.1-2.4-0.2c-0.1,0-0.2,0-0.3-0.1c-0.5-0.1-0.9-0.3-1.1-0.5C8.3,9.8,8.1,9.4,8,9C7.9,8.6,7.8,8.2,7.8,7.8
	c0.4,0,0.8,0.1,1.1,0.2C9.4,8.1,9.8,8.3,10,8.5c0.1,0.1,0.3,0.4,0.4,0.6c0.1,0.2,0.1,0.4,0.2,0.6c0.3,0,0.5,0.1,0.8,0.1l0.2,0
	c-0.1-0.4-0.2-0.7-0.3-1c-0.1-0.4-0.3-0.7-0.6-1c-0.4-0.4-0.9-0.6-1.5-0.8C8.6,6.9,7.9,6.8,7.3,6.8l-0.6,0l0,0.6
	c0,0.6,0.1,1.3,0.3,1.9c0.2,0.6,0.4,1.2,0.8,1.5c0.4,0.4,0.9,0.6,1.5,0.8c0.6,0.1,1.2,0.2,1.9,0.3h0c0.3,0,0.7,0,1,0
	c0.3,0,0.7,0,1.1,0l0.5,0l0-0.5c0-0.2,0-0.4-0.1-0.7c0.5,0.6,1,1.1,1.6,1.8l0,0c0.1,0.1,0.2,0.2,0.3,0.3l-0.1,0
	c-0.9,0.1-1.7,0.2-2.6,0.2c-2,0-3.5-0.2-4.6-0.6c-0.1-0.1-0.3-0.1-0.4-0.2C7.6,12,7.3,11.7,7,11.4C6,10.4,5.7,8.6,5.6,5.7z M1.4,16
	c1.9-1.9,3.3-2.9,4.6-3.1c0.6-0.1,1.1,0,1.7,0.2c0.1,0,0.2,0.1,0.3,0.1c0.6,0.3,1.3,0.7,2.1,1.4c-0.1,0.1-0.2,0.2-0.4,0.3
	c-0.6,0.5-1.2,1.1-1.9,1.5c-0.1,0.1-0.2,0.1-0.3,0.2c-0.4,0.3-0.8,0.4-1.1,0.4c-0.3,0-0.7-0.2-1.1-0.4C5,16.5,4.7,16.2,4.4,16
	c0.3-0.3,0.6-0.5,0.9-0.7c0.4-0.3,0.8-0.4,1.1-0.4c0.2,0,0.4,0.1,0.7,0.2c0.2,0.1,0.3,0.2,0.5,0.3c0.2-0.2,0.4-0.3,0.6-0.5l0.2-0.1
	c-0.3-0.2-0.6-0.4-0.9-0.5c-0.4-0.2-0.8-0.3-1.1-0.3c-0.5,0-1.1,0.2-1.6,0.6c-0.5,0.3-1,0.7-1.5,1.1L2.9,16l0.4,0.4
	c0.5,0.4,1,0.8,1.5,1.1C5.4,17.8,6,18,6.5,18c0.5,0,1.1-0.2,1.6-0.6c0.5-0.3,1-0.7,1.5-1.1l0,0c0.2-0.2,0.5-0.4,0.8-0.7
	c0.3-0.2,0.5-0.5,0.7-0.8l0.3-0.4l-0.4-0.3c-0.2-0.1-0.3-0.3-0.5-0.4c0.7,0.1,1.5,0.1,2.4,0.1h0c0.1,0,0.2,0,0.4,0l-0.1,0.1
	c-0.5,0.7-1,1.4-1.7,2c-1.4,1.4-2.6,2.4-3.6,2.8l0,0c-0.1,0-0.3,0.1-0.4,0.2c-0.4,0.2-0.9,0.2-1.3,0.2C4.9,19.1,3.4,18,1.4,16z
	 M12.3,23.5c-0.1,0.1-0.1,0.3-0.2,0.4c-0.2,0.4-0.4,0.8-0.7,1.1c-1,1-2.8,1.3-5.8,1.3c0-2.6,0.3-4.4,1.1-5.4C7,20.4,7.5,20,8.1,19.8
	c0.1,0,0.2-0.1,0.3-0.1c0.7-0.2,1.5-0.4,2.4-0.5c0,0.2,0,0.3,0,0.5c0,0.8-0.1,1.6-0.2,2.4c0,0.1,0,0.2-0.1,0.3
	c-0.1,0.5-0.3,0.9-0.5,1.1c-0.2,0.2-0.6,0.4-1.1,0.5c-0.4,0.1-0.7,0.2-1.1,0.2c0-0.4,0.1-0.8,0.2-1.1c0.1-0.5,0.3-0.9,0.5-1.1
	c0.1-0.1,0.4-0.3,0.6-0.4c0.2-0.1,0.4-0.1,0.6-0.2c0-0.3,0.1-0.5,0.1-0.8l0-0.2c-0.4,0.1-0.7,0.2-1,0.3c-0.4,0.1-0.7,0.3-1,0.6
	c-0.4,0.4-0.6,0.9-0.8,1.5c-0.1,0.6-0.2,1.2-0.3,1.9l0,0.6l0.6,0c0.6,0,1.3-0.1,1.9-0.3c0.6-0.2,1.2-0.4,1.5-0.8
	c0.4-0.4,0.6-0.9,0.8-1.5c0.1-0.6,0.2-1.2,0.3-1.9v0c0-0.3,0-0.7,0-1c0-0.3,0-0.7,0-1.1l0-0.5l-0.5,0c-0.2,0-0.4,0-0.7,0.1
	c0.6-0.5,1.1-1,1.8-1.6l0,0c0.1-0.1,0.2-0.2,0.3-0.3l0,0.1c0.1,0.9,0.2,1.7,0.2,2.6C12.8,20.9,12.7,22.4,12.3,23.5L12.3,23.5z
	 M15.9,30.6c-1.9-1.9-2.9-3.3-3.1-4.6c-0.1-0.6,0-1.1,0.2-1.7c0-0.1,0.1-0.2,0.1-0.3c0.3-0.6,0.7-1.3,1.4-2.1
	c0.1,0.1,0.2,0.2,0.3,0.4c0.5,0.6,1.1,1.2,1.5,1.9c0.1,0.1,0.1,0.2,0.2,0.3c0.3,0.4,0.4,0.8,0.4,1.1c0,0.3-0.2,0.7-0.4,1.1
	c-0.2,0.3-0.4,0.6-0.7,0.9c-0.3-0.3-0.5-0.6-0.7-0.9c-0.3-0.4-0.4-0.8-0.4-1.1c0-0.2,0.1-0.4,0.2-0.7c0.1-0.2,0.2-0.3,0.3-0.5
	c-0.2-0.2-0.3-0.4-0.5-0.6l-0.1-0.2v0c-0.2,0.3-0.4,0.6-0.5,0.9c-0.2,0.4-0.3,0.8-0.3,1.1c0,0.5,0.2,1.1,0.6,1.6
	c0.3,0.5,0.7,1,1.1,1.5l0.4,0.4l0.4-0.4c0.4-0.5,0.8-1,1.1-1.5c0.3-0.6,0.6-1.1,0.6-1.6c0-0.5-0.2-1.1-0.6-1.6
	c-0.3-0.5-0.7-1-1.1-1.5l0,0c-0.2-0.2-0.4-0.5-0.7-0.8c-0.2-0.3-0.5-0.5-0.8-0.7l-0.4-0.3l-0.3,0.4c-0.1,0.2-0.3,0.3-0.4,0.5
	c0.1-0.7,0.1-1.5,0.1-2.4v0c0-0.1,0-0.2,0-0.4l0.1,0.1c0.7,0.5,1.4,1,2,1.7c1.4,1.4,2.4,2.6,2.8,3.6c0,0.1,0.1,0.3,0.2,0.4
	c0.2,0.4,0.2,0.9,0.2,1.3C19,27,18,28.5,15.9,30.6z M26.3,26.3c-2.6,0-4.4-0.3-5.4-1.1c-0.5-0.3-0.8-0.8-1.1-1.4v0
	c0-0.1-0.1-0.2-0.1-0.3c-0.2-0.7-0.4-1.5-0.5-2.4c0.2,0,0.3,0,0.5,0c0.8,0,1.6,0.1,2.4,0.2c0.1,0,0.2,0,0.3,0.1
	c0.5,0.1,0.9,0.3,1.1,0.5c0.2,0.2,0.4,0.6,0.5,1.1c0.1,0.4,0.2,0.7,0.2,1.1c-0.4,0-0.8-0.1-1.1-0.2c-0.5-0.1-0.9-0.3-1.1-0.5
	c-0.1-0.1-0.3-0.4-0.4-0.6c-0.1-0.2-0.1-0.4-0.2-0.6c-0.3,0-0.5-0.1-0.8-0.1l-0.2,0c0.1,0.4,0.2,0.7,0.3,1c0.1,0.4,0.3,0.7,0.6,1
	c0.4,0.4,0.9,0.6,1.5,0.8c0.6,0.1,1.2,0.2,1.9,0.3l0.6,0l0-0.6c0-0.6-0.1-1.3-0.3-1.9c-0.2-0.6-0.4-1.2-0.8-1.5
	c-0.4-0.4-0.9-0.6-1.5-0.8c-0.6-0.1-1.2-0.2-1.9-0.3h0c-0.3,0-0.7,0-1,0c-0.3,0-0.7,0-1.1,0l-0.5,0l0,0.5c0,0.2,0,0.4,0.1,0.7
	c-0.5-0.6-1-1.1-1.6-1.8l0,0c-0.1-0.1-0.2-0.2-0.3-0.3l0.1,0c0.9-0.1,1.7-0.2,2.6-0.2c2,0,3.5,0.2,4.6,0.6c0.1,0.1,0.3,0.1,0.4,0.2
	c0.4,0.2,0.8,0.4,1.1,0.7C25.9,21.6,26.2,23.4,26.3,26.3z M24.2,18.9c-0.1,0-0.2-0.1-0.3-0.1c-0.6-0.3-1.3-0.7-2.1-1.4
	c0.1-0.1,0.2-0.2,0.4-0.3c0.6-0.5,1.2-1.1,1.9-1.5c0.1-0.1,0.2-0.1,0.3-0.2c0.4-0.3,0.8-0.4,1.1-0.4c0.3,0,0.7,0.2,1.1,0.4
	c0.3,0.2,0.6,0.4,0.9,0.7c-0.3,0.3-0.6,0.5-0.9,0.7c-0.4,0.3-0.8,0.4-1.1,0.4c-0.2,0-0.4-0.1-0.7-0.2c-0.2-0.1-0.3-0.2-0.5-0.3
	c-0.2,0.2-0.4,0.3-0.6,0.5l-0.2,0.1c0.3,0.2,0.6,0.4,0.9,0.5c0.4,0.2,0.8,0.3,1.1,0.3c0.5,0,1.1-0.2,1.6-0.6c0.5-0.3,1-0.7,1.5-1.1
	L29,16l-0.4-0.4c-0.5-0.4-1-0.8-1.5-1.1c-0.6-0.3-1.1-0.6-1.6-0.6c-0.5,0-1.1,0.2-1.6,0.6c-0.5,0.3-1,0.7-1.5,1.1l0,0
	c-0.3,0.2-0.5,0.4-0.8,0.7c-0.3,0.2-0.5,0.5-0.7,0.8l-0.3,0.4l0.4,0.3c0.2,0.1,0.3,0.3,0.5,0.4c-0.7-0.1-1.5-0.1-2.4-0.1h0
	c-0.1,0-0.2,0-0.4,0l0.1-0.1c0.5-0.7,1-1.4,1.7-2c1.4-1.4,2.6-2.4,3.6-2.8l0,0c0.1,0,0.3-0.1,0.4-0.2c0.4-0.2,0.9-0.2,1.3-0.2
	c1.4,0,2.9,1.1,5,3.1c-1.9,1.9-3.3,2.9-4.6,3.1C25.4,19.2,24.8,19.1,24.2,18.9z"/>
</svg>
