<svg width="191" height="49" viewBox="0 0 191 49" fill="none" xmlns="http://www.w3.org/2000/svg">
<path d="M30.7156 17.5572C30.8554 17.7016 31.0176 17.8147 31.2017 17.8956C31.3858 17.9767 31.5835 18.0171 31.795 18.0171C32.0062 18.0171 32.2042 17.9767 32.3883 17.8956C32.5727 17.8147 32.7328 17.7016 32.8692 17.5572C33.0057 17.4128 33.1148 17.2452 33.1966 17.055C33.2786 16.8646 33.3195 16.6601 33.3195 16.4416C33.3195 16.2231 33.2786 16.0187 33.1966 15.8282C33.1148 15.638 33.0057 15.4705 32.8692 15.326C32.7328 15.1816 32.5727 15.0669 32.3883 14.9823C32.2042 14.8977 32.0062 14.8554 31.795 14.8554C31.5835 14.8554 31.3858 14.8977 31.2017 14.9823C31.0176 15.0669 30.8554 15.1816 30.7156 15.326C30.5757 15.4705 30.4649 15.638 30.3831 15.8282C30.3013 16.0187 30.2604 16.2231 30.2604 16.4416C30.2604 16.6601 30.3013 16.8646 30.3831 17.055C30.4649 17.2452 30.5757 17.4128 30.7156 17.5572Z" fill="#004D8D"/>
<path d="M63.1128 26.3656C62.8605 26.6369 62.5057 26.7727 62.0486 26.7727C61.6806 26.7727 61.3172 26.7077 60.9592 26.5771C60.601 26.4467 60.2685 26.2794 59.9617 26.0749C60.0843 25.5672 60.2292 25.1285 60.3965 24.7584C60.5636 24.3883 60.7407 24.0817 60.9284 23.8384C61.116 23.5951 61.307 23.4154 61.5014 23.2991C61.6958 23.1827 61.8816 23.1245 62.0592 23.1245C62.3181 23.1245 62.5382 23.1811 62.7188 23.2937C62.8995 23.4066 63.0479 23.5547 63.164 23.7379C63.2799 23.9214 63.3633 24.1256 63.4147 24.3513C63.4659 24.5771 63.4914 24.7991 63.4914 25.0173C63.4914 25.645 63.365 26.0943 63.1128 26.3656ZM33.1966 26.614H31.9588C31.7132 26.614 31.483 26.5682 31.268 26.4766C31.0533 26.3853 30.8673 26.2441 30.7105 26.0537C30.5535 25.8635 30.4291 25.6253 30.3371 25.34C30.245 25.0545 30.199 24.7212 30.199 24.3406C30.199 24.1011 30.2247 23.8648 30.2756 23.6321C30.3268 23.3996 30.4121 23.1932 30.5315 23.0135C30.6507 22.8338 30.8093 22.6894 31.0073 22.58C31.2049 22.4707 31.4505 22.416 31.7438 22.416C32.0509 22.416 32.2997 22.4812 32.4909 22.6118C32.6816 22.7422 32.8299 22.913 32.9358 23.1245C33.0414 23.336 33.1113 23.5776 33.1457 23.8489C33.1795 24.1205 33.1966 24.4006 33.1966 24.6897V26.614ZM65.9929 23.1404C65.7782 22.58 65.4879 22.1059 65.1232 21.7182C64.7584 21.3306 64.3303 21.0326 63.8393 20.8247C63.3481 20.6169 62.8263 20.5127 62.2739 20.5127C61.8783 20.5127 61.4689 20.5674 61.0462 20.6765C60.623 20.7861 60.2035 20.9992 59.7878 21.3163C59.3716 21.6336 58.969 22.0762 58.5804 22.6434C58.1916 23.211 57.8336 23.9494 57.5062 24.8589C57.3765 25.2183 57.2503 25.5127 57.1276 25.7417C57.0047 25.971 56.8734 26.1488 56.7336 26.2757C56.5937 26.4026 56.4453 26.4909 56.2887 26.5402C56.1317 26.5895 55.9576 26.614 55.7667 26.614H55.3984H52.2166H51.0604C51.0195 25.6978 50.8865 24.8271 50.6615 24.0022C50.4365 23.1776 50.0885 22.4532 49.6179 21.8292C49.1473 21.2053 48.5367 20.7101 47.7865 20.3435C47.036 19.9771 46.1153 19.7937 45.024 19.7937C44.7307 19.7937 44.4358 19.8133 44.1391 19.8518C43.8423 19.8906 43.5574 19.9402 43.2847 19.9998C43.0118 20.0598 42.7594 20.1231 42.5276 20.1902C42.2958 20.2573 42.0944 20.3225 41.924 20.3858V22.9766C42.1764 22.9063 42.432 22.8427 42.6914 22.7861C42.9506 22.7298 43.1943 22.6843 43.4228 22.6487C43.6514 22.6135 43.8593 22.5871 44.047 22.5695C44.2346 22.552 44.3863 22.5429 44.5024 22.5429C45.1911 22.5429 45.7676 22.642 46.2314 22.8392C46.6953 23.0364 47.0703 23.315 47.3568 23.6744C47.6433 24.034 47.8564 24.464 47.9962 24.9645C48.1359 25.4653 48.2266 26.0151 48.2675 26.614H40.5836H37.4019H36.0206V24.6156C36.0206 24.256 35.9933 23.8896 35.9388 23.5159C35.8839 23.1423 35.7937 22.7756 35.6675 22.416C35.5413 22.0566 35.3742 21.7182 35.1663 21.4009C34.9581 21.0838 34.7008 20.8053 34.3937 20.5655C34.0869 20.326 33.7235 20.1374 33.3041 19.9998C32.8846 19.8624 32.4021 19.7937 31.8564 19.7937C31.1608 19.7937 30.5434 19.9276 30.0045 20.1956C29.4657 20.4636 29.0105 20.8158 28.6387 21.253C28.2669 21.6902 27.9839 22.1889 27.7895 22.7492C27.5951 23.3096 27.4979 23.8823 27.4979 24.4675C27.4979 24.6226 27.503 24.7991 27.5133 24.9963C27.5236 25.1937 27.5423 25.3912 27.5696 25.5884C27.5967 25.7859 27.6308 25.9745 27.6717 26.1542C27.7129 26.3339 27.764 26.4872 27.8253 26.614H25.9224H22.7404H22.7402C22.5357 26.614 22.3275 26.5876 22.1163 26.5348C21.9048 26.482 21.7136 26.3939 21.5433 26.2705C21.3727 26.1474 21.2327 25.985 21.1238 25.784C21.0147 25.583 20.96 25.3346 20.96 25.0386V13.7133H18.1362V28.8031C18.1362 29.3598 18.0748 29.8323 17.9521 30.2199C17.8292 30.6076 17.6418 30.9233 17.3894 31.1663C17.1368 31.4096 16.8164 31.5858 16.4276 31.6951C16.0387 31.8045 15.5749 31.859 15.0363 31.859C13.9927 31.859 13.2166 31.5858 12.7086 31.0394C12.2003 30.4931 11.9463 29.6981 11.9463 28.655V25.5779H9.12256V28.634C9.12256 32.4899 11.0766 34.418 14.9851 34.418C15.9058 34.418 16.7311 34.3191 17.4609 34.1219C18.1907 33.9247 18.8097 33.5933 19.318 33.1281C19.826 32.6626 20.2164 32.044 20.4894 31.2722C20.7621 30.5001 20.9053 29.5395 20.9191 28.3907C21.0215 28.5529 21.1544 28.6851 21.3182 28.7872C21.4818 28.8894 21.6508 28.9686 21.8246 29.0251C21.9985 29.0817 22.1691 29.1202 22.3361 29.1415C22.5032 29.1625 22.6381 29.1731 22.7402 29.1731H22.7404H25.9224H37.4019H40.5836H52.2166H55.3984H56.4114C56.6432 29.1731 56.8631 29.1663 57.0713 29.152C57.2793 29.138 57.4805 29.1008 57.6749 29.041C57.8693 28.9812 58.0602 28.8912 58.2479 28.7714C58.4355 28.6515 58.6248 28.4823 58.8157 28.2638C59.4499 28.701 60.0603 29.0057 60.647 29.1784C61.2336 29.3511 61.8168 29.4376 62.3966 29.4376C63.0446 29.4376 63.6143 29.328 64.1053 29.1097C64.5964 28.8912 65.0056 28.5863 65.333 28.1951C65.6604 27.8037 65.906 27.3384 66.0696 26.7991C66.2334 26.2598 66.3154 25.6695 66.3154 25.0281C66.3154 24.3301 66.2077 23.701 65.9929 23.1404Z" fill="#004D8D"/>
<path d="M99.9782 22.9343L91.1344 17.8327C90.732 17.5971 90.2352 17.5971 89.8328 17.8327L82.0586 22.3181C81.7069 22.5212 81.4893 22.8981 81.4893 23.3042C81.4893 23.9677 82.0333 24.4427 82.6315 24.4427C82.8201 24.4427 83.0122 24.3958 83.1973 24.2906L90.2462 20.2185C90.3948 20.1351 90.5724 20.1351 90.721 20.2185L92.5269 21.2628C92.6538 21.3353 92.6538 21.5166 92.5269 21.589L82.0586 27.6336C81.7069 27.8367 81.4893 28.2138 81.4893 28.62C81.4893 29.2836 82.0333 29.7584 82.6278 29.7584C82.8164 29.7584 83.0122 29.7077 83.1973 29.6026L94.8511 22.8761C94.9962 22.793 95.1775 22.793 95.3226 22.8761L97.0993 23.9025C97.2262 23.9751 97.2262 24.1562 97.0993 24.2289L79.4986 34.3963C79.3717 34.4685 79.2159 34.3778 79.2159 34.2329V21.2736L86.1996 17.2417C87.0698 16.7376 87.0698 15.483 86.1996 14.9827L78.8932 10.7655C78.0264 10.2617 76.9387 10.8889 76.9387 11.8932V36.2379C76.9387 37.239 78.0264 37.8662 78.8932 37.3659L99.9782 25.1933C100.845 24.693 100.845 23.4384 99.9782 22.9343ZM102.803 24.0656C102.803 25.3057 102.139 26.4589 101.066 27.0789L79.9809 39.2512C79.4517 39.5557 78.8497 39.719 78.2442 39.719C76.326 39.719 74.7631 38.1562 74.7631 36.2379V11.8932C74.7631 9.97148 76.326 8.41237 78.2442 8.41237C78.8497 8.41237 79.4517 8.57197 79.9809 8.8802L101.066 21.0525C102.139 21.6725 102.803 22.8257 102.803 24.0656ZM79.2159 18.3185V13.902C79.2159 13.7571 79.3717 13.6664 79.4986 13.7388L83.3204 15.9471C83.4476 16.0198 83.4476 16.2009 83.3204 16.2733L79.4986 18.4818C79.3717 18.554 79.2159 18.4636 79.2159 18.3185Z" fill="#004D8D"/>
<path d="M122.009 21.2836L117.981 26.6533H117.522L113.583 21.2661V30.2573H111.251V17.8918H113.936L117.804 23.2089L121.673 17.8918H124.341V30.2573H122.009V21.2836Z" fill="#004D8D"/>
<path d="M133.139 20.4706L130.842 25.7349H135.435L133.139 20.4706ZM136.372 27.9076H129.906L128.846 30.2397H126.32L131.867 17.8742H134.411L139.957 30.2397H137.414L136.372 27.9076Z" fill="#004D8D"/>
<path d="M150.309 30.2571V25.2578H144.233V30.2571H141.901V17.8917H144.233V23.1025H150.309V17.8917H152.623V30.2571H150.309Z" fill="#004D8D"/>
<path d="M155.875 30.2397V17.8919H164.76V20.1355H158.206V23.5091H164.407V25.6648H158.206V30.2397H155.875Z" fill="#004D8D"/>
<path d="M167.622 17.8742H169.936V30.2395H167.622V17.8742Z" fill="#004D8D"/>
<path d="M175.518 17.8742V28.0845H181.878V30.2395H173.187V17.8742H175.518Z" fill="#004D8D"/>
</svg>
