<svg width="86" height="24" viewBox="0 0 86 24" fill="none" xmlns="http://www.w3.org/2000/svg">
<path d="M0.11964 1.18182H4.95629L11.4336 16.9915H11.6892L18.1665 1.18182H23.0032V23H19.2106V8.01065H19.0081L12.9783 22.9361H10.1445L4.11467 7.97869H3.91225V23H0.11964V1.18182ZM31.8455 23.3303C30.8086 23.3303 29.8746 23.1456 29.0436 22.7763C28.2198 22.3999 27.5664 21.8459 27.0834 21.1143C26.6076 20.3828 26.3696 19.4808 26.3696 18.4084C26.3696 17.4851 26.5401 16.7216 26.881 16.1179C27.2219 15.5142 27.6871 15.0312 28.2766 14.669C28.8661 14.3068 29.5302 14.0334 30.2688 13.8487C31.0145 13.657 31.7851 13.5185 32.5806 13.4332C33.5394 13.3338 34.3171 13.245 34.9137 13.1669C35.5103 13.0817 35.9435 12.9538 36.2134 12.7834C36.4904 12.6058 36.6289 12.3324 36.6289 11.9631V11.8991C36.6289 11.0966 36.3909 10.4751 35.9151 10.0348C35.4392 9.59446 34.7539 9.37429 33.859 9.37429C32.9144 9.37429 32.1651 9.58026 31.6111 9.99219C31.0642 10.4041 30.6949 10.8906 30.5032 11.4517L26.9023 10.9403C27.1864 9.94602 27.6552 9.11506 28.3086 8.44744C28.962 7.77273 29.761 7.26847 30.7056 6.93466C31.6502 6.59375 32.6942 6.4233 33.8377 6.4233C34.626 6.4233 35.4108 6.51563 36.1921 6.70028C36.9733 6.88494 37.6871 7.19034 38.3334 7.61648C38.9797 8.03551 39.4982 8.60724 39.8888 9.33168C40.2865 10.0561 40.4854 10.9616 40.4854 12.0483V23H36.778V20.7521H36.6502C36.4158 21.2067 36.0855 21.6328 35.6594 22.0305C35.2404 22.4212 34.7113 22.7372 34.0721 22.9787C33.44 23.2131 32.6978 23.3303 31.8455 23.3303ZM32.8469 20.4964C33.6211 20.4964 34.2922 20.3437 34.8604 20.0384C35.4286 19.7259 35.8654 19.3139 36.1708 18.8026C36.4833 18.2912 36.6395 17.7337 36.6395 17.13V15.2017C36.5188 15.3011 36.3128 15.3935 36.0216 15.4787C35.7375 15.5639 35.4179 15.6385 35.0628 15.7024C34.7077 15.7663 34.3561 15.8232 34.0081 15.8729C33.6601 15.9226 33.3583 15.9652 33.1026 16.0007C32.5273 16.0788 32.0124 16.2067 31.5579 16.3842C31.1033 16.5618 30.7446 16.8104 30.4819 17.13C30.2191 17.4425 30.0877 17.8473 30.0877 18.3445C30.0877 19.0547 30.3469 19.5909 30.8654 19.9531C31.3838 20.3153 32.0444 20.4964 32.8469 20.4964ZM48.2198 13.4119V23H44.3632V1.18182H48.1346V9.4169H48.3263C48.7098 8.49361 49.3029 7.76562 50.1054 7.23295C50.9151 6.69318 51.9449 6.4233 53.1949 6.4233C54.3313 6.4233 55.3221 6.66122 56.1672 7.13707C57.0124 7.61293 57.6658 8.30895 58.1275 9.22514C58.5962 10.1413 58.8306 11.2599 58.8306 12.581V23H54.974V13.1776C54.974 12.0767 54.69 11.2209 54.1218 10.6101C53.5607 9.99219 52.7723 9.68324 51.7567 9.68324C51.0749 9.68324 50.4641 9.83239 49.9243 10.1307C49.3917 10.4219 48.9726 10.8445 48.6672 11.3984C48.3689 11.9524 48.2198 12.6236 48.2198 13.4119ZM71.05 6.63636V9.61932H61.3767V6.63636H71.05ZM63.7951 23V5.09162C63.7951 3.99077 64.0223 3.07457 64.4769 2.34304C64.9385 1.61151 65.5564 1.06463 66.3306 0.702414C67.1047 0.340198 67.9641 0.159089 68.9087 0.159089C69.5763 0.159089 70.1694 0.212357 70.6878 0.318892C71.2063 0.425426 71.5898 0.521306 71.8384 0.606534L71.0713 3.58949C70.908 3.53977 70.702 3.49006 70.4534 3.44034C70.2049 3.38352 69.9279 3.35511 69.6225 3.35511C68.9052 3.35511 68.3973 3.52912 68.099 3.87713C67.8079 4.21804 67.6623 4.7081 67.6623 5.3473V23H63.7951ZM74.0703 23V6.63636H77.9268V23H74.0703ZM76.0092 4.31392C75.3984 4.31392 74.8728 4.11151 74.4325 3.70668C73.9922 3.29474 73.772 2.80114 73.772 2.22585C73.772 1.64347 73.9922 1.14986 74.4325 0.745027C74.8728 0.333096 75.3984 0.12713 76.0092 0.12713C76.6271 0.12713 77.1527 0.333096 77.5859 0.745027C78.0262 1.14986 78.2464 1.64347 78.2464 2.22585C78.2464 2.80114 78.0262 3.29474 77.5859 3.70668C77.1527 4.11151 76.6271 4.31392 76.0092 4.31392ZM85.7491 1.18182V23H81.8925V1.18182H85.7491Z" fill="#3898FC"/>
</svg>
