<svg width="176" height="135" viewBox="0 0 176 135" fill="none" xmlns="http://www.w3.org/2000/svg">
<path d="M134.841 84.9677C134.841 84.9677 108.656 93.8108 96.0604 64.9894C83.465 36.168 81.2745 29.4343 73.1007 23.2075C64.9268 16.9808 59.8359 17.711 59.8359 17.711C59.8359 17.711 89.7526 12.9649 111.962 33.6124C134.171 54.26 133.847 69.5935 133.847 69.5935C133.847 69.5935 125.145 50.1629 104.478 49.4125C104.478 49.4125 115.45 50.4063 124.375 67.1596C133.279 83.913 134.841 84.9677 134.841 84.9677Z" fill="#ECC3B2"/>
<path d="M110.556 120.128C110.556 120.128 77.2886 136.14 55.8613 100.035C34.434 63.9286 30.4252 55.3693 18.5663 48.4641C6.70742 41.5588 0.0772106 43.3618 0.0772106 43.3618C0.0772106 43.3618 38.9649 32.1636 71.7986 55.8648C104.632 79.566 106.717 99.9286 106.717 99.9286C106.717 99.9286 91.9931 75.6214 64.4668 78.0208C64.4668 78.0208 79.1785 77.5356 93.7589 98.2601C108.312 118.988 110.556 120.128 110.556 120.128Z" fill="#00AB98"/>
<path d="M145.857 59.0054C145.857 59.0054 127.701 58.4462 126.579 37.7746C125.457 17.1029 125.658 12.446 122.059 6.72766C118.46 1.00927 115.157 0.290385 115.157 0.290385C115.157 0.290385 134.668 4.23408 143.59 22.0718C152.512 39.9094 148.783 49.2935 148.783 49.2935C148.783 49.2935 147.898 35.3091 135.346 30.0991C135.346 30.0991 141.873 33.2324 143.512 45.6166C145.138 57.9961 145.857 59.0054 145.857 59.0054Z" fill="#8D9093"/>
<path d="M158.652 42.2897C158.652 42.2897 147.336 38.8489 150.148 25.6661C152.96 12.4832 153.879 9.59059 152.59 5.38419C151.301 1.17778 149.347 0.164072 149.347 0.164072C149.347 0.164072 160.939 5.96246 163.511 18.6914C166.083 31.4203 162.143 36.6837 162.143 36.6837C162.143 36.6837 163.966 27.7439 156.964 22.3338C156.964 22.3338 160.533 25.4136 159.456 33.4759C158.372 41.533 158.652 42.2897 158.652 42.2897Z" fill="#CBA052"/>
</svg>
